<?xml version="1.0" encoding="UTF-8"?>
<svg id="Layer_1" xmlns="http://www.w3.org/2000/svg" version="1.1" viewBox="0 0 64 64">
  <!-- Generator: Adobe Illustrator 30.2.1, SVG Export Plug-In . SVG Version: 2.1.1 Build 1)  -->
  <defs>
    <style>
      .st0 {
        fill: #fff;
      }
    </style>
  </defs>
  <circle class="st0" cx="32" cy="32" r="32"/>
  <path d="M55.4,43c-1.1,0-1.7.9-2.6,2.2-2.5,3.4-6.2,7.9-10.8,7.9s-5.3-2.8-5.3-5.6c0-5.8,3.4-14.7,3.4-21.5s-3.2-4.7-7.7-4.7-4.5,0-6.3-.3c1.6-3.7,2.6-7,2.6-9.2,0-4.7-3.4-7.6-8.8-7.6s-10.2,4.7-10.2,11.4,3.3,8,8.1,10.2c-2.9,5.4-6.4,11.2-9.2,15.2-1.8,2.8-2.6,3.9-2.6,5.6s1.1,2.4,2.2,2.4,2.9-2.2,4.7-5c3-4.5,7-10.6,10.1-16.7,1.7.3,3.4.4,5.3.4s3.3.4,3.3,2.4c0,3.5-3.3,11.2-3.3,18s5.5,11.8,12.5,11.8,12.6-6.7,15.9-11.3c.9-1.3,1.3-2,1.3-3s-1.4-2.6-2.6-2.6ZM20.7,19.6c-2.8-1.2-4.2-2.8-4.2-4.9s1.4-4.2,3-4.2,2.6,1.1,2.6,3-.5,3.7-1.4,6Z"/>
</svg>